<?xml version="1.0" encoding="UTF-8"?>
<svg version="1.1" xmlns="http://www.w3.org/2000/svg" width="128" height="128">
<path d="M0 0 C13.4049791 10.08466889 22.8895283 24.50756459 25.4140625 41.22265625 C27.18485288 61.98721061 23.29842818 79.57058598 9.65625 95.8125 C-1.52088628 107.82694788 -16.23240541 115.81854174 -32.78515625 116.55859375 C-53.04635469 116.8915543 -69.39297325 112.35679155 -84.5859375 98.22265625 C-98.11616884 84.40360224 -103.01172963 68.53868692 -102.95166016 49.61206055 C-102.62380549 31.62065989 -94.95829184 16.37822505 -82.15625 3.84375 C-58.82102307 -16.61785106 -25.26462465 -17.36465894 0 0 Z " fill="#FEFEFE" transform="translate(102.5859375,11.77734375)"/>
<path d="M0 0 C2.01877672 -0.02671804 4.03212249 -0.10157977 6.04956055 -0.17749023 C16.45558432 -0.28583257 23.04283999 2.26434305 30.52612305 9.51220703 C32.17260742 11.28540039 32.17260742 11.28540039 33.78198242 13.35571289 C35.47539802 15.61816616 35.47539802 15.61816616 37.68823242 17.71508789 C43.44709558 24.01761995 44.26389871 29.65798072 44.36010742 37.91040039 C44.38000732 38.87413574 44.39990723 39.83787109 44.42041016 40.83081055 C44.25837325 47.46909663 44.25837325 47.46909663 42.20629883 50.29882812 C39.51465182 52.6742801 37.69208447 53.51623585 34.11010742 53.84790039 C32.81073242 53.69321289 32.81073242 53.69321289 31.48510742 53.53540039 C31.39229492 54.92758789 31.39229492 54.92758789 31.29760742 56.34790039 C30.48510742 59.53540039 30.48510742 59.53540039 28.42260742 61.41040039 C24.54647099 62.89487817 21.62023432 62.74566108 17.48510742 62.53540039 C17.48510742 65.83540039 17.48510742 69.13540039 17.48510742 72.53540039 C14.51510742 72.53540039 11.54510742 72.53540039 8.48510742 72.53540039 C7.47874192 70.1003553 6.47984329 67.66269175 5.48510742 65.22290039 C5.19893555 64.53260742 4.91276367 63.84231445 4.61791992 63.13110352 C3.39599998 60.11994365 2.48510742 57.81653055 2.48510742 54.53540039 C1.4719043 54.5934082 0.45870117 54.65141602 -0.58520508 54.71118164 C-12.78111685 55.20630832 -12.78111685 55.20630832 -16.38989258 52.41040039 C-18.71311462 49.26721763 -19.01975702 47.33846285 -19.51489258 43.53540039 C-20.39532227 43.5934082 -21.27575195 43.65141602 -22.18286133 43.71118164 C-31.51303959 44.0736192 -31.51303959 44.0736192 -34.45629883 42.49243164 C-38.31445697 38.56517216 -38.67255512 35.47146867 -38.70239258 30.16040039 C-38.71657227 29.01829102 -38.73075195 27.87618164 -38.74536133 26.69946289 C-38.5215677 23.62704192 -38.23759655 22.04370226 -36.51489258 19.53540039 C-34.99145508 18.21899414 -34.99145508 18.21899414 -33.13989258 16.97290039 C-28.65095441 13.77473748 -24.70717541 10.11709367 -20.72827148 6.31835938 C-14.06982812 0.05010211 -8.96630371 0.07847263 0 0 Z " fill="#2D3133" transform="translate(59.514892578125,31.464599609375)"/>
<path d="M0 0 C4.07056733 -0.17530602 8.1396243 -0.30109675 12.21313477 -0.38452148 C13.5934076 -0.41935335 14.9734295 -0.46684125 16.3527832 -0.52807617 C26.51771427 -0.96746113 33.15437442 0.33312085 41 7 C43.59446221 9.51715922 45.79505729 12.13912467 48 15 C48.73863281 15.82371094 49.47726563 16.64742187 50.23828125 17.49609375 C54.70085597 22.80648059 56.55174206 26.13746259 56 33.1875 C55.67 35.105625 55.34 37.02375 55 39 C50.05 39 45.1 39 40 39 C39.67 32.4 39.34 25.8 39 19 C39 19.66 39 20.32 39 21 C39 29.66666667 39 38.33333333 39 47 C37.68677212 46.02180976 36.37443848 45.0424189 35.0625 44.0625 C34.33160156 43.51722656 33.60070312 42.97195312 32.84765625 42.41015625 C31 41 31 41 30 40 C28.15108054 39.76636119 26.29511969 39.58696365 24.4375 39.4375 C23.42558594 39.35371094 22.41367188 39.26992187 21.37109375 39.18359375 C20.19740234 39.09271484 20.19740234 39.09271484 19 39 C19.33 38.01 19.66 37.02 20 36 C18.68 36.66 17.36 37.32 16 38 C16 26.12 16 14.24 16 2 C10.72 1.67 5.44 1.34 0 1 C0 0.67 0 0.34 0 0 Z " fill="#474B4D" transform="translate(47,32)"/>
<path d="M0 0 C3.96 0 7.92 0 12 0 C12.27401448 5.37068389 12.47243494 10.73722373 12.60424805 16.11328125 C12.65923139 17.93724486 12.73405438 19.76073103 12.82983398 21.58300781 C13.64755406 37.55259979 13.64755406 37.55259979 9.53759766 42.48925781 C2.97347535 49 2.97347535 49 0 49 C0 32.83 0 16.66 0 0 Z " fill="#FCFCFC" transform="translate(49,34)"/>
<path d="M0 0 C11.49177632 5.74588816 11.49177632 5.74588816 15.875 12 C16.32101563 12.60328125 16.76703125 13.2065625 17.2265625 13.828125 C18.09570506 15.00402376 18.95427924 16.18782622 19.80078125 17.38012695 C21.11476153 19.2108211 21.11476153 19.2108211 23.3046875 21.54296875 C26.37699345 25.99568866 25.23061027 30.75361625 25 36 C20.05 36 15.1 36 10 36 C9.67 29.4 9.34 22.8 9 16 C7.700625 17.155 6.40125 18.31 5.0625 19.5 C1.125 23 1.125 23 0 23 C0 15.41 0 7.82 0 0 Z " fill="#F2F3F3" transform="translate(77,35)"/>
<path d="M0 0 C3.20547958 1.43024761 5.5354446 3.20433073 8.125 5.5625 C10.86038045 8.07679216 10.86038045 8.07679216 14 10 C14.36453202 15.4679803 14.36453202 15.4679803 12.84375 17.6875 C10.27005085 19.51962482 8.43489214 19.29770208 5.3125 19.1875 C3.82169922 19.14689453 3.82169922 19.14689453 2.30078125 19.10546875 C1.54152344 19.07066406 0.78226563 19.03585938 0 19 C0 22.3 0 25.6 0 29 C-1.65 29 -3.3 29 -5 29 C-12 15.24137931 -12 15.24137931 -12 11 C-10.390625 9.31640625 -10.390625 9.31640625 -8.25 7.5625 C-5.36411291 5.14736045 -2.6096521 2.71838761 0 0 Z " fill="#F7F7F8" transform="translate(75,73)"/>
<path d="M0 0 C3.96 0 7.92 0 12 0 C12.27149353 4.31674714 12.46867784 8.61630894 12.625 12.9375 C12.70878906 14.14986328 12.79257813 15.36222656 12.87890625 16.61132812 C13.02336597 21.94189185 13.11087244 25.54225727 9.79980469 29.88720703 C3.14197531 36 3.14197531 36 0 36 C0 24.12 0 12.24 0 0 Z " fill="#F8F9F9" transform="translate(63,34)"/>
<path d="M0 0 C3.63 0 7.26 0 11 0 C9.93663267 4.25346932 9.09469815 5.28908318 6.0625 8.25 C5.35222656 8.95640625 4.64195313 9.6628125 3.91015625 10.390625 C2 12 2 12 0 12 C1.03892661 14.82336539 2.10404001 17.63127133 3.1875 20.4375 C3.62545898 21.64116211 3.62545898 21.64116211 4.07226562 22.86914062 C4.92556091 25.04366732 5.74363455 27.02964705 7 29 C9.60308057 30.1760491 9.60308057 30.1760491 12 30 C12 26.7 12 23.4 12 20 C13.15628906 19.92652344 13.15628906 19.92652344 14.3359375 19.8515625 C15.33882812 19.77679688 16.34171875 19.70203125 17.375 19.625 C18.87160156 19.52058594 18.87160156 19.52058594 20.3984375 19.4140625 C23.15508879 19.23636036 23.15508879 19.23636036 25 17 C25.39764263 15.01178687 25.73775349 13.01055661 26 11 C25.01 10.67 24.02 10.34 23 10 C23.33 6.7 23.66 3.4 24 0 C28.95 0 33.9 0 39 0 C40.20931646 5.09640506 40.20931646 5.09640506 40 8 C36.99772048 11.51486382 35.25919701 12.88340768 30.625 13.3125 C29.75875 13.209375 28.8925 13.10625 28 13 C27.9071875 14.3921875 27.9071875 14.3921875 27.8125 15.8125 C27 19 27 19 24.9375 20.875 C21.06136357 22.35947778 18.1351269 22.21026069 14 22 C14 25.3 14 28.6 14 32 C11.03 32 8.06 32 5 32 C3.9936345 29.56495491 2.99473587 27.12729136 2 24.6875 C1.71382812 23.99720703 1.42765625 23.30691406 1.1328125 22.59570312 C-0.08910744 19.58454326 -1 17.28113016 -1 14 C-5.95 14 -10.9 14 -16 14 C-16 13.67 -16 13.34 -16 13 C-11.05 13 -6.1 13 -1 13 C-0.34 11.68 0.32 10.36 1 9 C2.9453125 7.078125 2.9453125 7.078125 5.125 5.25 C5.84945312 4.63640625 6.57390625 4.0228125 7.3203125 3.390625 C7.87460938 2.93171875 8.42890625 2.4728125 9 2 C6.03 1.67 3.06 1.34 0 1 C0 0.67 0 0.34 0 0 Z " fill="#53585A" transform="translate(63,72)"/>
<path d="M0 0 C0.93585937 0.01804688 1.87171875 0.03609375 2.8359375 0.0546875 C5.14106438 0.10173091 7.44566354 0.17347222 9.75 0.25 C9.75 3.88 9.75 7.51 9.75 11.25 C1.83 11.25 -6.09 11.25 -14.25 11.25 C-14.25 4.25 -14.25 4.25 -12.890625 1.828125 C-8.74514135 -0.64935339 -4.72611416 -0.1720994 0 0 Z " fill="#F3F4F4" transform="translate(37.25,49.75)"/>
<path d="M0 0 C7.92 0 15.84 0 24 0 C24 3.63 24 7.26 24 11 C20.74861456 11.13497449 17.5028234 11.23409172 14.25 11.3125 C12.86941406 11.3753418 12.86941406 11.3753418 11.4609375 11.43945312 C4.69210204 11.56207696 4.69210204 11.56207696 1.359375 8.85546875 C0 6 0 6 0 0 Z " fill="#F2F3F3" transform="translate(23,62)"/>
<path d="M0 0 C9.9 0 19.8 0 30 0 C30 0.33 30 0.66 30 1 C25.71 1 21.42 1 17 1 C17 12.88 17 24.76 17 37 C18.32 36.01 19.64 35.02 21 34 C21.66 34.33 22.32 34.66 23 35 C22.34 35.66 21.68 36.32 21 37 C21.6290625 36.99097656 22.258125 36.98195312 22.90625 36.97265625 C24.19015625 37.01712891 24.19015625 37.01712891 25.5 37.0625 C26.3353125 37.07410156 27.170625 37.08570313 28.03125 37.09765625 C31 38 31 38 39 45 C39.33 36.75 39.66 28.5 40 20 C39.34 19.67 38.68 19.34 38 19 C38.99 18.34 39.98 17.68 41 17 C41 23.93 41 30.86 41 38 C45.95 38 50.9 38 56 38 C56 34.04 56 30.08 56 26 C56.33 26 56.66 26 57 26 C57 32.27 57 38.54 57 45 C56.67 45 56.34 45 56 45 C56 43.02 56 41.04 56 39 C51.05 39 46.1 39 41 39 C41 41.97 41 44.94 41 48 C36.52580786 46.59382533 34.27154203 44.27154203 31 41 C30.01 41 29.02 41 28 41 C28 40.34 28 39.68 28 39 C22.06 39.495 22.06 39.495 16 40 C16 27.13 16 14.26 16 1 C11.71 1 7.42 1 3 1 C3 5.95 3 10.9 3 16 C0.27157939 17.36421031 -1.60953318 16.87807211 -4.625 16.5625 C-5.62789062 16.46066406 -6.63078125 16.35882813 -7.6640625 16.25390625 C-8.43492188 16.17011719 -9.20578125 16.08632813 -10 16 C-10 15.67 -10 15.34 -10 15 C-6.37 15 -2.74 15 1 15 C0.67 10.05 0.34 5.1 0 0 Z " fill="#1D2123" transform="translate(46,33)"/>
<path d="M0 0 C0 7.92 0 15.84 0 24 C-2.64 22.02 -5.28 20.04 -8 18 C-11.09438691 17.09423361 -11.09438691 17.09423361 -14 17.125 C-14.94875 17.08632812 -15.8975 17.04765625 -16.875 17.0078125 C-17.57625 17.00523438 -18.2775 17.00265625 -19 17 C-17.87565085 15.87565085 -16.75094737 14.7516549 -15.625 13.62890625 C-14.4324061 12.43344554 -13.24574482 11.23205874 -12.0625 10.02734375 C-2.16635514 0 -2.16635514 0 0 0 Z " fill="#F7F7F7" transform="translate(85,54)"/>
<path d="M0 0 C4.29 0 8.58 0 13 0 C13.35915493 6.34507042 13.35915493 6.34507042 11.9375 8.9375 C8.91362524 10.5957539 6.37613017 10.30144019 3 10 C2.01 9.34 1.02 8.68 0 8 C-0.40843923 5.28796348 -0.13336867 2.7562858 0 0 Z " fill="#FCFCFC" transform="translate(88,73)"/>
<path d="M0 0 C0 4.29 0 8.58 0 13 C-5.28 13 -10.56 13 -16 13 C-12.80845689 9.80845689 -9.65695091 6.70261618 -6.3125 3.6875 C-5.54550781 2.99011719 -4.77851562 2.29273438 -3.98828125 1.57421875 C-2 0 -2 0 0 0 Z " fill="#F8F8F8" transform="translate(47,35)"/>
<path d="M0 0 C0.90105469 0.01804687 1.80210938 0.03609375 2.73046875 0.0546875 C3.41753906 0.07789062 4.10460937 0.10109375 4.8125 0.125 C1.7216225 4.3285934 -1.5776624 8.55629124 -6.1875 11.125 C-9.58653372 11.60632302 -12.78168119 11.49504872 -16.1875 11.125 C-16.1875 9.125 -16.1875 9.125 -14.54296875 7.46875 C-13.82753906 6.8603125 -13.11210938 6.251875 -12.375 5.625 C-11.31345703 4.71234375 -11.31345703 4.71234375 -10.23046875 3.78125 C-6.57628581 0.81877664 -4.6600822 -0.1210411 0 0 Z " fill="#F1F2F2" transform="translate(68.1875,72.875)"/>
<path d="M0 0 C0.66 0.66 1.32 1.32 2 2 C-3 6 -8 10 -13 14 C-5.575 14.99 -5.575 14.99 2 16 C2 16.33 2 16.66 2 17 C1.40985107 17.01458252 0.81970215 17.02916504 0.21166992 17.04418945 C-2.46371229 17.11868844 -5.13784892 17.21533995 -7.8125 17.3125 C-9.2056543 17.34633789 -9.2056543 17.34633789 -10.62695312 17.38085938 C-11.51962891 17.41630859 -12.41230469 17.45175781 -13.33203125 17.48828125 C-14.15421143 17.51446533 -14.9763916 17.54064941 -15.82348633 17.56762695 C-18.49127014 18.09759276 -19.38418207 18.83802554 -21 21 C-21.79950463 24.41563186 -21.79950463 24.41563186 -22.1875 28.1875 C-22.34605469 29.45980469 -22.50460938 30.73210938 -22.66796875 32.04296875 C-22.83232422 33.50669922 -22.83232422 33.50669922 -23 35 C-23.33 35 -23.66 35 -24 35 C-24.05418326 32.91695462 -24.09287551 30.83350232 -24.125 28.75 C-24.14820312 27.58984375 -24.17140625 26.4296875 -24.1953125 25.234375 C-24.00634988 22.10515404 -23.75971844 20.54245034 -22 18 C-20.4765625 16.68359375 -20.4765625 16.68359375 -18.625 15.4375 C-14.08883793 12.20214911 -10.08919399 8.50426682 -6.03759766 4.69506836 C-2.18982564 1.09491282 -2.18982564 1.09491282 0 0 Z " fill="#383C3E" transform="translate(45,33)"/>
<path d="M0 0 C0.66 0 1.32 0 2 0 C2.33 3.96 2.66 7.92 3 12 C4.32 10.68 5.64 9.36 7 8 C8.32 8 9.64 8 11 8 C11 16.58 11 25.16 11 34 C10.67 34 10.34 34 10 34 C9.505 22.12 9.505 22.12 9 10 C4.84903752 13.94108799 4.84903752 13.94108799 0.71362305 17.8984375 C-0.06694458 18.62933594 -0.06694458 18.62933594 -0.86328125 19.375 C-1.65665894 20.12910156 -1.65665894 20.12910156 -2.46606445 20.8984375 C-4 22 -4 22 -7 22 C-3.25 17.125 -3.25 17.125 -1 16 C-0.68758545 13.28553021 -0.48663408 10.66090639 -0.375 7.9375 C-0.33632812 7.17888672 -0.29765625 6.42027344 -0.2578125 5.63867188 C-0.16326438 3.75952805 -0.08053244 1.87979664 0 0 Z " fill="#4E5355" transform="translate(75,45)"/>
<path d="M0 0 C3.63 0 7.26 0 11 0 C9.93663267 4.25346932 9.09469815 5.28908318 6.0625 8.25 C5.35222656 8.95640625 4.64195313 9.6628125 3.91015625 10.390625 C2 12 2 12 0 12 C3.465 20.91 3.465 20.91 7 30 C6.34 30.33 5.68 30.66 5 31 C3.9932996 28.73192796 2.99448234 26.46092246 2 24.1875 C1.71382812 23.54490234 1.42765625 22.90230469 1.1328125 22.24023438 C-0.13711041 19.32243531 -1 17.21734286 -1 14 C-5.95 14 -10.9 14 -16 14 C-16 13.67 -16 13.34 -16 13 C-11.05 13 -6.1 13 -1 13 C-0.34 11.68 0.32 10.36 1 9 C2.9453125 7.078125 2.9453125 7.078125 5.125 5.25 C5.84945312 4.63640625 6.57390625 4.0228125 7.3203125 3.390625 C7.87460938 2.93171875 8.42890625 2.4728125 9 2 C6.03 1.67 3.06 1.34 0 1 C0 0.67 0 0.34 0 0 Z " fill="#3E4345" transform="translate(63,72)"/>
<path d="M0 0 C8.40358586 4.38970854 14.81573475 13.6314695 19 22 C15.79061982 20.63248379 14.14124737 19.24123241 12.125 16.41015625 C11.35929687 15.35731445 11.35929687 15.35731445 10.578125 14.28320312 C10.05734375 13.55037109 9.5365625 12.81753906 9 12.0625 C7.96374711 10.61200245 6.9222331 9.16524629 5.875 7.72265625 C5.19050781 6.75984741 5.19050781 6.75984741 4.4921875 5.77758789 C2.85131998 3.82288298 1.08869395 2.45418593 -1 1 C-0.67 0.67 -0.34 0.34 0 0 Z " fill="#383C3E" transform="translate(84,37)"/>
<path d="M0 0 C0.52078125 0.64453125 1.0415625 1.2890625 1.578125 1.953125 C4.70975418 4.59985676 6.69773096 4.58790924 10.75 4.75 C12.50570312 4.83507812 12.50570312 4.83507812 14.296875 4.921875 C15.18890625 4.94765625 16.0809375 4.9734375 17 5 C17 5.66 17 6.32 17 7 C14.91731407 7.08126087 12.83371342 7.13930839 10.75 7.1875 C9.00976562 7.23970703 9.00976562 7.23970703 7.234375 7.29296875 C3.74747837 6.97712666 2.34250632 6.58023592 0 4 C0 2.68 0 1.36 0 0 Z " fill="#3B4042" transform="translate(23,68)"/>
<path d="M0 0 C3.63 0 7.26 0 11 0 C9.92321277 4.30714891 9.04559112 5.28991322 5.9375 8.25 C5.20402344 8.95640625 4.47054687 9.6628125 3.71484375 10.390625 C3.14894531 10.92171875 2.58304687 11.4528125 2 12 C1.34 11.34 0.68 10.68 0 10 C2.97 7.36 5.94 4.72 9 2 C6.03 1.67 3.06 1.34 0 1 C0 0.67 0 0.34 0 0 Z " fill="#4D5254" transform="translate(63,72)"/>
<path d="M0 0 C1.65 0 3.3 0 5 0 C5 2.64 5 5.28 5 8 C3.0625 7.375 3.0625 7.375 1 6 C0.25 2.875 0.25 2.875 0 0 Z " fill="#F9F9F9" transform="translate(42,75)"/>
<path d="M0 0 C0.66 0.66 1.32 1.32 2 2 C0.3970551 3.29318256 -1.20740142 4.58449156 -2.8125 5.875 C-3.70582031 6.59429687 -4.59914063 7.31359375 -5.51953125 8.0546875 C-8 10 -8 10 -11 12 C-11 9 -11 9 -9.35546875 7.24609375 C-8.64003906 6.64925781 -7.92460938 6.05242188 -7.1875 5.4375 C-6.47980469 4.83808594 -5.77210937 4.23867188 -5.04296875 3.62109375 C-3 2 -3 2 0 0 Z " fill="#414547" transform="translate(45,33)"/>
<path d="M0 0 C0.66 0.33 1.32 0.66 2 1 C0.88121617 2.17262904 -0.24523051 3.33795138 -1.375 4.5 C-2.00148438 5.1496875 -2.62796875 5.799375 -3.2734375 6.46875 C-5 8 -5 8 -7 8 C-7.33 8.66 -7.66 9.32 -8 10 C-8 7 -8 7 -6.25 5.17578125 C-5.5075 4.56089844 -4.765 3.94601563 -4 3.3125 C-3.2575 2.68988281 -2.515 2.06726563 -1.75 1.42578125 C-1.1725 0.95527344 -0.595 0.48476562 0 0 Z " fill="#393D40" transform="translate(59,74)"/>
<path d="M0 0 C0.66 0.33 1.32 0.66 2 1 C0.88671875 2.984375 0.88671875 2.984375 -1 5 C-3.91796875 5.390625 -3.91796875 5.390625 -7.1875 5.25 C-8.27417969 5.21390625 -9.36085938 5.1778125 -10.48046875 5.140625 C-11.31191406 5.09421875 -12.14335938 5.0478125 -13 5 C-13 4.67 -13 4.34 -13 4 C-12.31292969 3.96261719 -11.62585938 3.92523438 -10.91796875 3.88671875 C-10.01691406 3.82097656 -9.11585937 3.75523438 -8.1875 3.6875 C-7.29417969 3.62949219 -6.40085937 3.57148437 -5.48046875 3.51171875 C-2.69396 2.93686419 -1.75864246 2.1793144 0 0 Z " fill="#2E3234" transform="translate(89,88)"/>
</svg>
